<?xml version="1.0" encoding="UTF-8" standalone="no"?>
        <svg 
    viewBox="3.4423828125 -85.546875 447.4365234375 56.982421875"
    width="443.994140625"
    height="142.529296875"
   xmlns="http://www.w3.org/2000/svg"
   xmlns:svg="http://www.w3.org/2000/svg">
   <path d="M81.01-12.30L81.45-13.92Q101.37-13.62 113.67-11.39Q125.98-9.16 132.24-5.90Q138.50-2.64 139.97 0.88Q141.43 4.39 139.53 7.43Q137.62 10.47 133.67 12.19Q129.71 13.92 125.02 13.62Q120.34 13.33 116.38 10.03L116.38 10.03Q111.91 5.20 103.09-1.14Q94.26-7.47 81.01-12.30L81.01-12.30ZM50.10-19.04L50.10-19.04L74.56-3.44Q73.39-2.12 71.04-1.57Q68.70-1.03 64.67-1.83L64.67-1.83Q57.50 1.98 47.64 5.13Q37.79 8.28 26.51 10.58Q15.23 12.89 3.88 14.14L3.88 14.14L3.44 12.60Q12.45 8.79 21.46 3.33Q30.47-2.12 38.01-7.98Q45.56-13.84 50.10-19.04ZM104.37-46.07L104.37-61.38L85.18-61.38L85.18-46.07L104.37-46.07ZM5.42-76.68L4.17-80.86L113.23-80.86L124.95-95.43Q124.95-95.43 127.11-93.86Q129.27-92.29 132.64-89.76Q136.01-87.23 139.67-84.41Q143.33-81.59 146.41-79.03L146.41-79.03Q145.75-76.68 142.02-76.68L142.02-76.68L85.18-76.68L85.18-65.55L102.91-65.55L112.50-76.03L132.42-61.08Q131.69-60.13 130.26-59.25Q128.83-58.37 126.42-57.93L126.42-57.93L126.42-19.04Q126.34-18.53 123.27-17.40Q120.19-16.26 115.94-15.34Q111.69-14.43 108.18-14.43L108.18-14.43L104.37-14.43L104.37-20.73L46.22-20.73L46.22-18.16Q46.22-17.14 43.40-15.56Q40.58-13.99 36.29-12.71Q32.01-11.43 27.61-11.43L27.61-11.43L24.46-11.43L24.46-74.27L47.39-65.55L63.87-65.55L63.87-76.68L5.42-76.68ZM46.22-41.82L46.22-24.90L63.87-24.90L63.87-41.82L46.22-41.82ZM46.22-61.38L46.22-46.07L63.87-46.07L63.87-61.38L46.22-61.38ZM85.18-24.90L104.37-24.90L104.37-41.82L85.18-41.82L85.18-24.90ZM83.72-110.23L83.72-128.25L110.82-125.98Q110.74-124.51 109.68-123.38Q108.62-122.24 105.47-121.80L105.47-121.80L105.47-110.23L111.18-110.23L121.95-123.78Q121.95-123.78 123.93-122.28Q125.90-120.78 129.02-118.43Q132.13-116.09 135.53-113.45Q138.94-110.82 141.72-108.47L141.72-108.47Q141.06-106.05 137.40-106.05L137.40-106.05L105.47-106.05L105.47-87.89Q105.47-87.30 102.69-86.35Q99.90-85.40 95.73-84.63Q91.55-83.86 87.30-83.86L87.30-83.86L83.72-83.86L83.72-91.19L64.82-91.19L64.82-87.16Q64.82-86.57 62.15-85.58Q59.47-84.59 55.37-83.86Q51.27-83.13 47.09-83.13L47.09-83.13L43.51-83.13L43.51-106.05L13.77-106.05L12.60-110.23L43.51-110.23L43.51-128.25L70.39-125.98Q70.09-124.51 69.03-123.38Q67.97-122.24 64.82-121.80L64.82-121.80L64.82-110.23L83.72-110.23ZM83.72-106.05L64.82-106.05L64.82-95.43L83.72-95.43L83.72-106.05ZM265.50-39.48L266.82-40.21Q278.98-36.69 285.90-31.68Q292.82-26.66 295.53-21.24Q298.24-15.82 297.66-11.13Q297.07-6.45 294.18-3.52Q291.28-0.59 286.96-0.51Q282.64-0.44 277.95-4.32L277.95-4.32Q277.15-13.48 273.52-22.81Q269.90-32.15 265.50-39.48L265.50-39.48ZM209.11-39.77L209.11-39.77L210.72-39.77Q215.33-30.03 216.03-22.12Q216.72-14.21 214.56-8.64Q212.40-3.08 208.52-0.29L208.52-0.29Q205.74 1.76 202.22 1.79Q198.71 1.83 195.67 0Q192.63-1.83 191.24-5.42L191.24-5.42Q189.55-10.47 191.86-14.32Q194.17-18.16 198.49-20.43L198.49-20.43Q200.90-21.90 203.47-24.87Q206.03-27.83 207.68-31.68Q209.33-35.52 209.11-39.77ZM234.74-83.13L223.32-83.13L223.32-59.40L234.74-59.40L234.74-83.13ZM223.32-111.62L223.32-87.30L234.74-87.30L234.74-111.62L223.32-111.62ZM267.11-59.40L267.11-83.13L255.03-83.13L255.03-59.40L267.11-59.40ZM255.03-87.30L267.11-87.30L267.11-111.62L255.03-111.62L255.03-87.30ZM176.88-128.25L176.88-128.25L202.51-120.78L202.51-124.37L224.41-115.80L265.65-115.80L275.10-126.12L294.29-111.47Q293.63-110.52 292.16-109.61Q290.70-108.69 288.43-108.18L288.43-108.18L288.43-52.08Q288.28-51.42 285.35-50.21Q282.42-49.00 278.36-47.97Q274.29-46.95 270.78-46.95L270.78-46.95L267.11-46.95L267.11-55.22L223.32-55.22L223.32-52.08Q223.32-50.98 220.72-49.40Q218.12-47.83 214.05-46.55Q209.99-45.26 205.66-45.26L205.66-45.26L202.51-45.26L202.51-116.82L200.10-116.53Q196.80-107.89 193.03-100.09Q189.26-92.29 185.08-85.18L185.08-85.18L193.36-82.18Q192.99-81.08 191.97-80.35Q190.94-79.61 188.67-79.17L188.67-79.17L188.67 8.28Q188.53 9.01 186.00 10.44Q183.47 11.87 179.59 13.07Q175.71 14.28 171.61 14.28L171.61 14.28L167.72 14.28L167.72-61.23Q164.14-57.13 160.22-53.43Q156.30-49.73 152.27-46.51L152.27-46.51L150.59-47.53Q155.79-57.50 160.84-70.79Q165.89-84.08 170.10-98.88Q174.32-113.67 176.88-128.25ZM226.17-50.54L227.27-51.42Q238.77-52.00 245.84-49.84Q252.91-47.68 256.31-44.13Q259.72-40.58 260.05-36.73Q260.38-32.89 258.33-29.88Q256.27-26.88 252.50-25.85Q248.73-24.83 243.90-27.03L243.90-27.03Q242.65-29.96 240.45-33.62L240.45-33.62L239.14-33.18L239.14-9.30Q239.14-7.98 239.72-7.51Q240.31-7.03 242.58-7.03L242.58-7.03L250.93-7.03Q253.20-7.03 255.07-7.03Q256.93-7.03 257.89-7.03L257.89-7.03Q260.08-7.25 261.18-8.72L261.18-8.72Q262.28-10.25 263.89-14.39Q265.50-18.53 267.48-24.17L267.48-24.17L269.09-24.17L269.53-8.28Q272.83-6.81 273.89-5.09Q274.95-3.37 274.95-0.73L274.95-0.73Q274.95 4.54 269.20 7.51Q263.45 10.47 248.88 10.47L248.88 10.47L237.45 10.47Q230.57 10.47 227.09 9.19Q223.61 7.91 222.44 4.65Q221.26 1.39 221.26-4.32L221.26-4.32L221.26-38.67L237.89-37.35Q235.18-41.16 232.10-44.57Q229.03-47.97 226.17-50.54L226.17-50.54ZM379.03-18.60L377.86-22.78L398.58-22.78L398.58-53.83L382.32-53.83L386.13-50.68Q385.40-49.44 384.23-48.96Q383.06-48.49 380.71-48.12L380.71-48.12Q378.81-38.60 375.48-29.92Q372.14-21.24 366.72-13.77L366.72-13.77Q374.41-10.84 384.34-9.92Q394.26-9.01 406.93-9.01L406.93-9.01Q410.30-9.01 415.58-9.01Q420.85-9.01 426.78-9.05Q432.71-9.08 438.21-9.12Q443.70-9.16 447.44-9.30L447.44-9.30L447.44-7.62Q442.38-6.30 439.89-1.28Q437.40 3.74 437.40 9.89L437.40 9.89Q434.77 9.89 430.59 9.89Q426.42 9.89 421.80 9.89Q417.19 9.89 413.01 9.89Q408.84 9.89 406.20 9.89L406.20 9.89Q389.58 9.89 377.64 7.10Q365.70 4.32 357.57-3.44L357.57-3.44Q351.49 2.05 343.32 6.59Q335.16 11.13 324.46 14.28L324.46 14.28L323.58 12.45Q332.74 7.40 339.22 0.92Q345.70-5.57 349.95-13.33L349.95-13.33Q344.24-23.58 340.94-38.96L340.94-38.96L342.11-39.62Q346.73-28.27 353.83-21.61L353.83-21.61Q356.54-28.27 358.19-35.63Q359.84-42.99 360.72-50.83L360.72-50.83L356.98-50.83L354.57-45.48Q350.98-44.31 346.33-44.57Q341.67-44.82 335.67-47.09L335.67-47.09Q338.31-52.73 341.05-59.18Q343.80-65.63 346.29-71.92Q348.78-78.22 350.68-83.42L350.68-83.42L339.33-83.42L337.94-87.60L350.54-87.60L358.67-96.61L376.03-82.47Q374.05-80.20 369.29-79.83L369.29-79.83Q367.53-75.22 364.71-68.44Q361.89-61.67 358.96-55.08L358.96-55.08L359.55-55.08L368.99-64.82L377.27-58.08L398.58-58.08L398.58-78.74Q393.16-78.22 387.63-77.86Q382.10-77.49 376.83-77.42L376.83-77.42L376.32-79.47Q384.45-81.81 393.16-85.33Q401.88-88.84 409.50-92.69Q417.11-96.53 422.09-99.90L422.09-99.90L439.67-83.72Q436.89-81.15 430.22-83.86L430.22-83.86Q427.51-83.20 424.48-82.62Q421.44-82.03 418.07-81.45L418.07-81.45L418.07-58.08L423.12-58.08L431.69-70.53Q431.69-70.53 434.33-68.15Q436.96-65.77 440.48-62.44Q443.99-59.11 446.70-56.25L446.70-56.25Q446.04-53.83 442.68-53.83L442.68-53.83L418.07-53.83L418.07-22.78L420.26-22.78L428.98-34.94Q428.98-34.94 431.73-32.63Q434.47-30.32 438.17-27.10Q441.87-23.88 444.73-21.02L444.73-21.02Q444.29-18.60 440.70-18.60L440.70-18.60L379.03-18.60ZM314.72-66.28L314.72-104.22L314.72-112.35L338.82-104.22L367.68-104.22L367.68-128.25L394.04-126.27Q393.97-124.73 392.87-123.63Q391.77-122.53 388.62-121.95L388.62-121.95L388.62-104.22L417.48-104.22L427.81-118.51Q427.81-118.51 429.71-116.93Q431.62-115.36 434.51-112.90Q437.40-110.45 440.55-107.67Q443.70-104.88 446.26-102.47L446.26-102.47Q445.61-100.05 442.02-100.05L442.02-100.05L335.67-100.05L335.67-66.28Q335.67-56.91 334.90-46.33Q334.13-35.74 331.24-25.05Q328.34-14.36 322.01-4.47Q315.67 5.42 304.47 13.48L304.47 13.48L303.30 12.45Q308.86 0.81 311.24-12.52Q313.62-25.85 314.17-39.62Q314.72-53.39 314.72-66.28L314.72-66.28Z"/>
    </svg>
        